<svg id="Lager_3" data-name="Lager 3" xmlns="http://www.w3.org/2000/svg" viewBox="0 0 1200 780"><defs><style>.cls-1{fill:#edeaea;}.cls-2{fill:none;stroke:#5a5a5a;stroke-miterlimit:10;}.cls-3{fill:#5a5a5a;}.cls-4{fill:#1a73b9;}.cls-5{fill:#fff;}</style></defs><title>ipad</title><rect class="cls-1" width="1200" height="780"/><rect x="361.78" y="57.03" width="476.44" height="675.61" rx="30" ry="30"/><circle class="cls-2" cx="598.69" cy="700.87" r="14.75"/><circle class="cls-3" cx="598.69" cy="86.82" r="2.87"/><rect class="cls-4" x="385.57" y="119.67" width="430" height="550.33"/><path class="cls-5" d="M564.94,361.73h-0.08l-5.11,14.12h-2.57l-5.08-14.06H552l0.37,8.37v3l2,0.39v2.29h-7.9v-2.29l2-.39V359.46l-2-.39v-2.3h7l4.86,14.05h0.08l4.9-14.05h7v2.3l-2,.39v13.68l2,0.39v2.29h-7.9v-2.29l2-.39v-3Z"/><path class="cls-5" d="M580.91,375.83a6.89,6.89,0,0,1-.28-0.73,5.72,5.72,0,0,1-.18-0.75,5.26,5.26,0,0,1-1.66,1.27,5,5,0,0,1-2.23.48,4.68,4.68,0,0,1-3.31-1.13,4,4,0,0,1-1.22-3.08,3.51,3.51,0,0,1,1.6-3.08,8.34,8.34,0,0,1,4.69-1.09h2v-1.39a2.09,2.09,0,0,0-.59-1.58,2.43,2.43,0,0,0-1.74-.56,4.13,4.13,0,0,0-1.17.15,3.05,3.05,0,0,0-.83.36l-0.25,1.52h-2.88v-3.14a10.74,10.74,0,0,1,2.4-1.19,8.72,8.72,0,0,1,3-.48,6.72,6.72,0,0,1,4.28,1.29,4.4,4.4,0,0,1,1.64,3.67v5.85q0,0.33,0,.62a4.36,4.36,0,0,0,0,.55l1.17,0.16v2.29h-4.41Zm-3.31-2.55a3.31,3.31,0,0,0,1.57-.37,3,3,0,0,0,1.1-.94v-2.16h-2a2.66,2.66,0,0,0-1.85.57,1.78,1.78,0,0,0-.63,1.37,1.41,1.41,0,0,0,.46,1.13A1.89,1.89,0,0,0,577.6,373.28Z"/><path class="cls-5" d="M586.91,373.54l1.83-.39v-8.79l-2-.39v-2.3h5.59l0.17,2.07a4.46,4.46,0,0,1,1.28-1.72,2.87,2.87,0,0,1,1.82-.62,4.68,4.68,0,0,1,.64,0,3.92,3.92,0,0,1,.56.11L596.36,365l-1.57,0a2.68,2.68,0,0,0-1.39.33,2.12,2.12,0,0,0-.84.93v6.89l1.83,0.39v2.29h-7.49v-2.29Z"/><path class="cls-5" d="M596.85,357.71v-2.3h5.85v11.84h0.85l2.2-3.1-1.24-.17v-2.3h7V364l-1.68.38-2.55,3.51,3.57,5.38,1.45,0.3v2.29h-6.55v-2.29l0.79-.13-2.17-3.51H602.7v3.25l1.65,0.39v2.29H597v-2.29l1.85-.39v-15Z"/><path class="cls-5" d="M613.4,373.54l1.83-.39v-8.79l-2-.39v-2.3h5.59l0.17,2a5.18,5.18,0,0,1,1.74-1.69,4.52,4.52,0,0,1,2.32-.6,4.26,4.26,0,0,1,3.35,1.35,6.23,6.23,0,0,1,1.2,4.23v6.17l1.83,0.39v2.29h-7.31v-2.29l1.64-.39V367a2.87,2.87,0,0,0-.58-2,2.32,2.32,0,0,0-1.74-.6,3,3,0,0,0-1.36.31,2.8,2.8,0,0,0-1,.87v7.6l1.55,0.39v2.29h-7.2v-2.29Z"/><path class="cls-5" d="M639.66,375.83a6.89,6.89,0,0,1-.28-0.73,5.72,5.72,0,0,1-.18-0.75,5.26,5.26,0,0,1-1.66,1.27,5,5,0,0,1-2.23.48A4.68,4.68,0,0,1,632,375a4,4,0,0,1-1.22-3.08,3.51,3.51,0,0,1,1.6-3.08,8.34,8.34,0,0,1,4.69-1.09h2v-1.39a2.09,2.09,0,0,0-.59-1.58,2.43,2.43,0,0,0-1.74-.56,4.13,4.13,0,0,0-1.17.15,3.05,3.05,0,0,0-.83.36l-0.25,1.52h-2.88v-3.14a10.74,10.74,0,0,1,2.4-1.19,8.72,8.72,0,0,1,3-.48,6.72,6.72,0,0,1,4.28,1.29,4.4,4.4,0,0,1,1.64,3.67v5.85q0,0.33,0,.62a4.36,4.36,0,0,0,0,.55l1.17,0.16v2.29h-4.41Zm-3.31-2.55a3.31,3.31,0,0,0,1.57-.37A3,3,0,0,0,639,372v-2.16h-2a2.66,2.66,0,0,0-1.85.57,1.78,1.78,0,0,0-.63,1.37,1.41,1.41,0,0,0,.46,1.13A1.89,1.89,0,0,0,636.34,373.28Z"/><path class="cls-5" d="M654.58,374.1A4.69,4.69,0,0,1,653,375.6a4.17,4.17,0,0,1-2.08.51,4.8,4.8,0,0,1-4.07-1.91,8.16,8.16,0,0,1-1.45-5.05v-0.27a9.18,9.18,0,0,1,1.45-5.41A4.72,4.72,0,0,1,651,361.4a3.92,3.92,0,0,1,1.91.46,4.68,4.68,0,0,1,1.49,1.32V358.1l-2-.39v-2.3h5.87v17.74l1.83,0.39v2.29h-5.15Zm-5.34-5a5.82,5.82,0,0,0,.62,2.93,2.17,2.17,0,0,0,2,1.07,3,3,0,0,0,1.45-.34,2.71,2.71,0,0,0,1-1v-6a2.92,2.92,0,0,0-1-1.05,2.69,2.69,0,0,0-1.43-.37,2.14,2.14,0,0,0-2,1.24,7.09,7.09,0,0,0-.64,3.25v0.27Z"/><path class="cls-5" d="M672.8,366.53h-2.57l-0.41-1.77a3.36,3.36,0,0,0-1-.52,4,4,0,0,0-1.32-.21,2.56,2.56,0,0,0-1.6.45,1.37,1.37,0,0,0-.59,1.13,1.29,1.29,0,0,0,.56,1.07,6,6,0,0,0,2.25.75,9.17,9.17,0,0,1,3.9,1.54,3.38,3.38,0,0,1,1.27,2.8,3.72,3.72,0,0,1-1.64,3.12,7.12,7.12,0,0,1-4.33,1.21,9.06,9.06,0,0,1-3-.48,7.67,7.67,0,0,1-2.43-1.37l0-3.18h2.67l0.52,1.85a2.19,2.19,0,0,0,.93.43,5.4,5.4,0,0,0,1.23.14,3.12,3.12,0,0,0,1.77-.42,1.31,1.31,0,0,0,.61-1.14,1.33,1.33,0,0,0-.62-1.09,6.29,6.29,0,0,0-2.27-.81,9.08,9.08,0,0,1-3.78-1.51,3.28,3.28,0,0,1-1.28-2.73,4,4,0,0,1,1.47-3.07,6.13,6.13,0,0,1,4.18-1.29,10.75,10.75,0,0,1,3.12.45,6.6,6.6,0,0,1,2.31,1.14Z"/><path class="cls-5" d="M535.07,401.27l1.85-.39V392.1l-2-.39v-2.3h5.87v11.48l1.83,0.39v2.29h-7.5v-2.29ZM540.74,386h-3.82v-2.87h3.82V386Z"/><path class="cls-5" d="M543.62,401.27l1.83-.39V392.1l-2-.39v-2.3H549l0.17,2a5.18,5.18,0,0,1,1.74-1.69,4.52,4.52,0,0,1,2.32-.6,4.26,4.26,0,0,1,3.35,1.35,6.23,6.23,0,0,1,1.2,4.23v6.17l1.83,0.39v2.29h-7.31v-2.29l1.64-.39v-6.15a2.87,2.87,0,0,0-.58-2,2.32,2.32,0,0,0-1.74-.6,3,3,0,0,0-1.36.31,2.8,2.8,0,0,0-1,.87v7.6l1.55,0.39v2.29h-7.2v-2.29Z"/><path class="cls-5" d="M561.06,401.27l1.85-.39v-8.8H560.8V389.4h2.11v-1.57a4.79,4.79,0,0,1,1.37-3.67,5.43,5.43,0,0,1,3.86-1.29,7,7,0,0,1,1,.07q0.5,0.07,1.11.2L569.91,386l-0.61-.09a5.26,5.26,0,0,0-.69,0,1.84,1.84,0,0,0-1.41.51,2.07,2.07,0,0,0-.48,1.47v1.57h2.82v2.68h-2.82v8.8l1.85,0.39v2.29h-7.52v-2.29Z"/><path class="cls-5" d="M570.83,396.35a7.58,7.58,0,0,1,1.77-5.19,7,7,0,0,1,9.82,0,7.58,7.58,0,0,1,1.77,5.2v0.27a7.58,7.58,0,0,1-1.77,5.21,7,7,0,0,1-9.82,0,7.57,7.57,0,0,1-1.77-5.21v-0.27Zm3.82,0.27a6.17,6.17,0,0,0,.68,3.11,2.35,2.35,0,0,0,2.2,1.17,2.33,2.33,0,0,0,2.17-1.18,6.12,6.12,0,0,0,.69-3.1v-0.27a6.06,6.06,0,0,0-.69-3.08,2.35,2.35,0,0,0-2.19-1.19,2.32,2.32,0,0,0-2.17,1.19,6.16,6.16,0,0,0-.68,3.08v0.27Z"/><path class="cls-5" d="M586.15,401.27l1.83-.39V392.1l-2-.39v-2.3h5.59l0.17,2.07a4.46,4.46,0,0,1,1.28-1.72,2.87,2.87,0,0,1,1.82-.62,4.68,4.68,0,0,1,.64,0,3.92,3.92,0,0,1,.56.11l-0.41,3.48-1.57,0a2.68,2.68,0,0,0-1.39.33,2.12,2.12,0,0,0-.84.93v6.89l1.83,0.39v2.29h-7.49v-2.29Z"/><path class="cls-5" d="M596.7,391.7v-2.3h5.59l0.16,1.87a4.76,4.76,0,0,1,1.71-1.58,4.92,4.92,0,0,1,2.38-.56,4.33,4.33,0,0,1,2.33.6,3.72,3.72,0,0,1,1.47,1.82,4.91,4.91,0,0,1,1.7-1.78,4.62,4.62,0,0,1,2.46-.64,4.08,4.08,0,0,1,3.31,1.45A6.76,6.76,0,0,1,619,395v5.89l1.85,0.39v2.29h-7.32v-2.29l1.65-.39V395a3.58,3.58,0,0,0-.52-2.24,1.91,1.91,0,0,0-1.56-.63,2.67,2.67,0,0,0-1.41.36,2.63,2.63,0,0,0-.95,1q0,0.25,0,.43t0,0.36v6.63l1.55,0.39v2.29h-6.9v-2.29l1.55-.39V395a3.59,3.59,0,0,0-.52-2.22,1.9,1.9,0,0,0-1.57-.65,3,3,0,0,0-1.36.29,2.6,2.6,0,0,0-1,.83v7.65l1.65,0.39v2.29H596.9v-2.29l1.85-.39V392.1Z"/><path class="cls-5" d="M631.12,403.57a6.89,6.89,0,0,1-.28-0.73,5.72,5.72,0,0,1-.18-0.75,5.26,5.26,0,0,1-1.66,1.27,5,5,0,0,1-2.23.48,4.68,4.68,0,0,1-3.31-1.13,4,4,0,0,1-1.22-3.08,3.51,3.51,0,0,1,1.6-3.08,8.34,8.34,0,0,1,4.69-1.09h2v-1.39a2.09,2.09,0,0,0-.59-1.58,2.43,2.43,0,0,0-1.74-.56,4.13,4.13,0,0,0-1.17.15,3.05,3.05,0,0,0-.83.36L625.91,394H623v-3.14a10.74,10.74,0,0,1,2.4-1.19,8.72,8.72,0,0,1,3-.48,6.72,6.72,0,0,1,4.28,1.29,4.4,4.4,0,0,1,1.64,3.67V400q0,0.33,0,.62a4.36,4.36,0,0,0,0,.55l1.17,0.16v2.29h-4.41ZM627.81,401a3.31,3.31,0,0,0,1.57-.37,3,3,0,0,0,1.1-.94v-2.16h-2a2.66,2.66,0,0,0-1.85.57,1.78,1.78,0,0,0-.63,1.37,1.41,1.41,0,0,0,.46,1.13A1.89,1.89,0,0,0,627.81,401Z"/><path class="cls-5" d="M641.42,385.93v3.47h2.49v2.68h-2.49v7.22a1.67,1.67,0,0,0,.34,1.18,1.21,1.21,0,0,0,.92.35,6.29,6.29,0,0,0,.69,0q0.29,0,.66-0.11l0.33,2.76a9.18,9.18,0,0,1-1.27.29,8.83,8.83,0,0,1-1.36.1,4.08,4.08,0,0,1-3-1.09,4.77,4.77,0,0,1-1.07-3.44v-7.23h-2.08V389.4h2.08v-3.47h3.81Z"/><path class="cls-5" d="M645.67,401.27l1.85-.39V392.1l-2-.39v-2.3h5.87v11.48l1.83,0.39v2.29h-7.5v-2.29ZM651.34,386h-3.82v-2.87h3.82V386Z"/><path class="cls-5" d="M654.43,396.35a7.58,7.58,0,0,1,1.77-5.19,7,7,0,0,1,9.82,0,7.58,7.58,0,0,1,1.77,5.2v0.27a7.58,7.58,0,0,1-1.77,5.21,7,7,0,0,1-9.82,0,7.57,7.57,0,0,1-1.77-5.21v-0.27Zm3.82,0.27a6.17,6.17,0,0,0,.68,3.11,2.35,2.35,0,0,0,2.2,1.17,2.33,2.33,0,0,0,2.17-1.18,6.12,6.12,0,0,0,.69-3.1v-0.27a6.06,6.06,0,0,0-.69-3.08,2.35,2.35,0,0,0-2.19-1.19,2.32,2.32,0,0,0-2.17,1.19,6.16,6.16,0,0,0-.68,3.08v0.27Z"/><path class="cls-5" d="M669.25,401.27l1.83-.39V392.1l-2-.39v-2.3h5.59l0.17,2a5.18,5.18,0,0,1,1.74-1.69,4.52,4.52,0,0,1,2.32-.6,4.26,4.26,0,0,1,3.35,1.35,6.23,6.23,0,0,1,1.2,4.23v6.17l1.83,0.39v2.29H678v-2.29l1.64-.39v-6.15a2.87,2.87,0,0,0-.58-2,2.32,2.32,0,0,0-1.74-.6,3,3,0,0,0-1.36.31,2.8,2.8,0,0,0-1,.87v7.6l1.55,0.39v2.29h-7.2v-2.29Z"/><path class="cls-5" d="M517.34,414.13a1.48,1.48,0,0,1-1.48-1.48v-0.12a1.48,1.48,0,1,1,3,0v0.12A1.48,1.48,0,0,1,517.34,414.13Zm0-4.85a1.48,1.48,0,0,1-1.48-1.48v-0.12a1.48,1.48,0,1,1,3,0v0.12A1.48,1.48,0,0,1,517.34,409.28Zm0-4.85a1.48,1.48,0,0,1-1.48-1.48v-0.12a1.48,1.48,0,1,1,3,0V403A1.48,1.48,0,0,1,517.34,404.43Zm0-4.85a1.48,1.48,0,0,1-1.48-1.48V398a1.48,1.48,0,1,1,3,0v0.12A1.48,1.48,0,0,1,517.34,399.59Zm0-4.85a1.48,1.48,0,0,1-1.48-1.48v-0.12a1.48,1.48,0,1,1,3,0v0.12A1.48,1.48,0,0,1,517.34,394.74Zm0-4.85a1.48,1.48,0,0,1-1.48-1.48V388.3a1.48,1.48,0,1,1,3,0v0.12A1.48,1.48,0,0,1,517.34,389.89Zm0-4.85a1.48,1.48,0,0,1-1.48-1.48v-0.12a1.48,1.48,0,1,1,3,0v0.12A1.48,1.48,0,0,1,517.34,385Zm0-4.85a1.48,1.48,0,0,1-1.48-1.48V378.6a1.48,1.48,0,0,1,3,0v0.12A1.48,1.48,0,0,1,517.34,380.2Zm0-4.85a1.48,1.48,0,0,1-1.48-1.48v-0.12a1.48,1.48,0,0,1,3,0v0.12A1.48,1.48,0,0,1,517.34,375.35Zm0-4.85a1.48,1.48,0,0,1-1.48-1.48v-0.12a1.48,1.48,0,0,1,3,0V369A1.48,1.48,0,0,1,517.34,370.5Zm0-4.85a1.48,1.48,0,0,1-1.48-1.48v-0.12a1.48,1.48,0,0,1,3,0v0.12A1.48,1.48,0,0,1,517.34,365.66Zm0-4.85a1.48,1.48,0,0,1-1.48-1.48v-0.12a1.48,1.48,0,1,1,3,0v0.12A1.48,1.48,0,0,1,517.34,360.81Zm0-4.85a1.48,1.48,0,0,1-1.48-1.48v-0.12a1.48,1.48,0,1,1,3,0v0.12A1.48,1.48,0,0,1,517.34,356Zm0-4.85a1.48,1.48,0,0,1-1.48-1.48v-0.12a1.48,1.48,0,1,1,3,0v0.12A1.48,1.48,0,0,1,517.34,351.12Z"/></svg>